<mxfile host="app.diagrams.net" modified="2021-10-14T12:27:43.630Z" agent="5.0 (Windows NT 10.0; Win64; x64) AppleWebKit/537.36 (KHTML, like Gecko) Chrome/92.0.4515.131 Safari/537.36" etag="1BeM31dbqd66VGcp-8i-" version="15.5.2" type="github">
  <diagram id="Ki4OD9zpx9m2wemxvtny" name="Page-1">
    <mxGraphModel dx="1422" dy="762" grid="1" gridSize="10" guides="1" tooltips="1" connect="1" arrows="1" fold="1" page="1" pageScale="1" pageWidth="827" pageHeight="1169" math="0" shadow="0">
      <root>
        <mxCell id="0" />
        <mxCell id="1" parent="0" />
        <mxCell id="0W6nrFl5lCPWv4pznCD_-1" value="Actor" style="shape=umlActor;verticalLabelPosition=bottom;verticalAlign=top;html=1;outlineConnect=0;" vertex="1" parent="1">
          <mxGeometry x="80" y="290" width="30" height="60" as="geometry" />
        </mxCell>
        <mxCell id="0W6nrFl5lCPWv4pznCD_-2" value="Actor" style="shape=umlActor;verticalLabelPosition=bottom;verticalAlign=top;html=1;outlineConnect=0;" vertex="1" parent="1">
          <mxGeometry x="710" y="460" width="30" height="60" as="geometry" />
        </mxCell>
        <mxCell id="0W6nrFl5lCPWv4pznCD_-3" value="Actor" style="shape=umlActor;verticalLabelPosition=bottom;verticalAlign=top;html=1;outlineConnect=0;" vertex="1" parent="1">
          <mxGeometry x="710" y="160" width="30" height="60" as="geometry" />
        </mxCell>
        <mxCell id="0W6nrFl5lCPWv4pznCD_-4" value="&#xa;&#xa;&lt;b style=&quot;font-weight: normal&quot; id=&quot;docs-internal-guid-d6d6a258-7fff-211c-9da3-53a5a46fa4c5&quot;&gt;&lt;span style=&quot;font-size: 6pt; font-family: &amp;quot;cg times&amp;quot;, serif; color: rgb(0, 0, 0); background-color: transparent; font-weight: 400; font-style: normal; font-variant: normal; text-decoration: none; vertical-align: baseline;&quot;&gt;SUBMISSION OF PAYMENTS&lt;/span&gt;&lt;/b&gt;&#xa;&#xa;" style="ellipse;whiteSpace=wrap;html=1;" vertex="1" parent="1">
          <mxGeometry x="360" y="50" width="120" height="80" as="geometry" />
        </mxCell>
        <mxCell id="0W6nrFl5lCPWv4pznCD_-5" value="&#xa;&#xa;&lt;b style=&quot;font-weight: normal&quot; id=&quot;docs-internal-guid-8f80560d-7fff-775f-be3a-dfc5eeb79c76&quot;&gt;&lt;span style=&quot;font-size: 6pt; font-family: &amp;quot;cg times&amp;quot;, serif; color: rgb(0, 0, 0); background-color: transparent; font-weight: 400; font-style: normal; font-variant: normal; text-decoration: none; vertical-align: baseline;&quot;&gt;SUBMISSION OF DEPOSIT&lt;/span&gt;&lt;/b&gt;&#xa;&#xa;" style="ellipse;whiteSpace=wrap;html=1;" vertex="1" parent="1">
          <mxGeometry x="360" y="150" width="120" height="80" as="geometry" />
        </mxCell>
        <mxCell id="0W6nrFl5lCPWv4pznCD_-6" value="&#xa;&#xa;&lt;b style=&quot;font-weight: normal&quot; id=&quot;docs-internal-guid-b35fc8ba-7fff-aa6d-255e-f7da49f02f3e&quot;&gt;&lt;span style=&quot;font-size: 6pt; font-family: &amp;quot;cg times&amp;quot;, serif; color: rgb(0, 0, 0); background-color: transparent; font-weight: 400; font-style: normal; font-variant: normal; text-decoration: none; vertical-align: baseline;&quot;&gt;BOOKING THE CARAVAN&lt;/span&gt;&lt;/b&gt;&#xa;&#xa;" style="ellipse;whiteSpace=wrap;html=1;" vertex="1" parent="1">
          <mxGeometry x="360" y="250" width="120" height="80" as="geometry" />
        </mxCell>
        <mxCell id="0W6nrFl5lCPWv4pznCD_-7" value="&#xa;&#xa;&lt;b style=&quot;font-weight: normal&quot; id=&quot;docs-internal-guid-f1c4a200-7fff-e0e9-b29e-194a61685224&quot;&gt;&lt;span style=&quot;font-size: 6pt; font-family: &amp;quot;cg times&amp;quot;, serif; color: rgb(0, 0, 0); background-color: transparent; font-weight: 400; font-style: normal; font-variant: normal; text-decoration: none; vertical-align: baseline;&quot;&gt;CONFIRM(ation of) BOOKING&lt;/span&gt;&lt;/b&gt;&#xa;&#xa;" style="ellipse;whiteSpace=wrap;html=1;" vertex="1" parent="1">
          <mxGeometry x="360" y="350" width="120" height="80" as="geometry" />
        </mxCell>
        <mxCell id="0W6nrFl5lCPWv4pznCD_-8" value="&#xa;&#xa;&lt;b style=&quot;font-weight: normal&quot; id=&quot;docs-internal-guid-71d05a63-7fff-0968-0c43-725606d91319&quot;&gt;&lt;span style=&quot;font-size: 6pt; font-family: &amp;quot;cg times&amp;quot;, serif; color: rgb(0, 0, 0); background-color: transparent; font-weight: 400; font-style: normal; font-variant: normal; text-decoration: none; vertical-align: baseline;&quot;&gt;SUPPLYING THE CARAVAN&lt;/span&gt;&lt;/b&gt;&#xa;&#xa;" style="ellipse;whiteSpace=wrap;html=1;" vertex="1" parent="1">
          <mxGeometry x="360" y="450" width="120" height="80" as="geometry" />
        </mxCell>
        <mxCell id="0W6nrFl5lCPWv4pznCD_-9" value="&#xa;&#xa;&lt;b style=&quot;font-weight: normal&quot; id=&quot;docs-internal-guid-7d473918-7fff-33c1-252f-c5b5c1e5bf32&quot;&gt;&lt;span style=&quot;font-size: 6pt; font-family: &amp;quot;cg times&amp;quot;, serif; color: rgb(0, 0, 0); background-color: transparent; font-weight: 400; font-style: normal; font-variant: normal; text-decoration: none; vertical-align: baseline;&quot;&gt;CONTACTINâ€™ THE SALES REP.&lt;/span&gt;&lt;/b&gt;&#xa;&#xa;" style="ellipse;whiteSpace=wrap;html=1;" vertex="1" parent="1">
          <mxGeometry x="360" y="560" width="120" height="80" as="geometry" />
        </mxCell>
        <mxCell id="0W6nrFl5lCPWv4pznCD_-15" value="" style="endArrow=none;html=1;rounded=0;entryX=0;entryY=0.3333333333333333;entryDx=0;entryDy=0;entryPerimeter=0;exitX=1;exitY=0.5;exitDx=0;exitDy=0;" edge="1" parent="1" source="0W6nrFl5lCPWv4pznCD_-8" target="0W6nrFl5lCPWv4pznCD_-2">
          <mxGeometry width="50" height="50" relative="1" as="geometry">
            <mxPoint x="390" y="420" as="sourcePoint" />
            <mxPoint x="440" y="370" as="targetPoint" />
          </mxGeometry>
        </mxCell>
        <mxCell id="0W6nrFl5lCPWv4pznCD_-16" value="" style="endArrow=none;html=1;rounded=0;entryX=0;entryY=0.5;entryDx=0;entryDy=0;" edge="1" parent="1" target="0W6nrFl5lCPWv4pznCD_-6">
          <mxGeometry width="50" height="50" relative="1" as="geometry">
            <mxPoint x="110" y="310" as="sourcePoint" />
            <mxPoint x="160" y="260" as="targetPoint" />
          </mxGeometry>
        </mxCell>
        <mxCell id="0W6nrFl5lCPWv4pznCD_-17" value="" style="endArrow=none;html=1;rounded=0;entryX=0;entryY=0.5;entryDx=0;entryDy=0;" edge="1" parent="1" target="0W6nrFl5lCPWv4pznCD_-5">
          <mxGeometry width="50" height="50" relative="1" as="geometry">
            <mxPoint x="110" y="310" as="sourcePoint" />
            <mxPoint x="260" y="210" as="targetPoint" />
          </mxGeometry>
        </mxCell>
        <mxCell id="0W6nrFl5lCPWv4pznCD_-18" value="" style="endArrow=none;html=1;rounded=0;exitX=1;exitY=0.5;exitDx=0;exitDy=0;" edge="1" parent="1" source="0W6nrFl5lCPWv4pznCD_-8">
          <mxGeometry width="50" height="50" relative="1" as="geometry">
            <mxPoint x="660" y="230" as="sourcePoint" />
            <mxPoint x="710" y="180" as="targetPoint" />
          </mxGeometry>
        </mxCell>
        <mxCell id="0W6nrFl5lCPWv4pznCD_-19" value="" style="endArrow=none;html=1;rounded=0;exitX=1;exitY=0.5;exitDx=0;exitDy=0;" edge="1" parent="1" source="0W6nrFl5lCPWv4pznCD_-7">
          <mxGeometry width="50" height="50" relative="1" as="geometry">
            <mxPoint x="660" y="230" as="sourcePoint" />
            <mxPoint x="710" y="180" as="targetPoint" />
          </mxGeometry>
        </mxCell>
        <mxCell id="0W6nrFl5lCPWv4pznCD_-20" value="" style="endArrow=none;html=1;rounded=0;exitX=1;exitY=0.5;exitDx=0;exitDy=0;" edge="1" parent="1" source="0W6nrFl5lCPWv4pznCD_-4">
          <mxGeometry width="50" height="50" relative="1" as="geometry">
            <mxPoint x="660" y="230" as="sourcePoint" />
            <mxPoint x="710" y="180" as="targetPoint" />
          </mxGeometry>
        </mxCell>
        <mxCell id="0W6nrFl5lCPWv4pznCD_-21" value="" style="endArrow=none;html=1;rounded=0;exitX=1;exitY=0.5;exitDx=0;exitDy=0;" edge="1" parent="1" source="0W6nrFl5lCPWv4pznCD_-9">
          <mxGeometry width="50" height="50" relative="1" as="geometry">
            <mxPoint x="660" y="530" as="sourcePoint" />
            <mxPoint x="710" y="480" as="targetPoint" />
          </mxGeometry>
        </mxCell>
      </root>
    </mxGraphModel>
  </diagram>
</mxfile>
